<?xml version="1.0" encoding="UTF-8"?> <svg xmlns="http://www.w3.org/2000/svg" xmlns:xlink="http://www.w3.org/1999/xlink" version="1.1" id="Layer_1" x="0px" y="0px" viewBox="0 0 1024 376" style="enable-background:new 0 0 1024 376;" xml:space="preserve"> <style type="text/css"> .st0{fill:#402C50;} .st1{fill:#2F5D68;} .st2{fill:url(#SVGID_1_);} .st3{fill:#FFFFFF;} .st4{font-family:'Jost-SemiBold';} .st5{font-size:22.88px;} .st6{letter-spacing:-1;} .st7{letter-spacing:-2;} .st8{font-size:17.69px;} .st9{fill:none;} .st10{font-family:'MyriadPro-Regular';} .st11{font-size:12px;} </style> <path class="st0" d="M730.6,301.6c-59.5,0-105-44.8-145.1-84.2c-4.3-4.2-8.7-8.6-13-12.8c-0.4-0.4-0.6-0.9-0.6-1.4v-31.6 c0-0.5,0.2-1.1,0.6-1.4c4.3-4.2,8.8-8.5,13-12.8c40.1-39.5,85.6-84.2,145.1-84.2c59.5,0.1,108.1,47.7,109.2,107.2h6 c-0.4-29.4-12.2-57.6-32.8-78.6c-0.8-0.8-0.8-2.1,0-2.8c0.8-0.8,2.1-0.8,2.8,0c21.9,22.2,34.1,52.2,34,83.3c0,1.1-0.9,2-2,2h-10 c-1.1,0-2-0.9-2-2c-0.1-58.1-47.1-105.2-105.2-105.2c-57.9,0-102.7,44.1-142.3,83.1c-4.1,4-8.3,8.2-12.5,12.2v29.9 c4.1,4,8.4,8.2,12.5,12.2c39.6,38.9,84.4,83.1,142.3,83.1c58.1-0.1,105.2-47.1,105.2-105.2c0-1.1,0.9-2,2-2s2,0.9,2,2 C839.8,252.7,790.9,301.5,730.6,301.6z M847.9,182.4L847.9,182.4z"></path> <path class="st0" d="M904.6,184.4c-1.1,0-2-0.9-2-2c0-44.2-17.6-86.6-48.9-117.8c-11.9-11.9-25.4-22-40.2-29.9 c-1-0.5-1.3-1.7-0.8-2.7c0.5-1,1.7-1.3,2.7-0.8l0,0c15.2,8.1,29.1,18.4,41.2,30.6c32.1,31.9,50.1,75.4,50.1,120.6 C906.6,183.5,905.7,184.4,904.6,184.4C904.6,184.4,904.6,184.4,904.6,184.4z"></path> <path class="st0" d="M654,32.3c-1.1,0-2-0.9-2-2c0-0.8,0.4-1.5,1.1-1.8C678.8,16,703.7,10,729.4,10c22.4-0.1,44.7,4,65.7,11.9 c1,0.4,1.6,1.5,1.2,2.6c-0.4,1-1.5,1.6-2.6,1.2l0,0c-20.5-7.8-42.3-11.7-64.2-11.6c-25,0-49.4,5.9-74.5,18 C654.6,32.2,654.3,32.2,654,32.3z"></path> <path class="st0" d="M654,90.7c-1.1,0-2-0.9-2-2c0-0.7,0.4-1.4,1-1.7c26-16.1,51.4-23.9,77.7-23.9c23,0,45.5,6.7,64.8,19.2 c0.9,0.6,1.2,1.8,0.6,2.8s-1.8,1.2-2.8,0.6l0,0c-18.6-12.1-40.4-18.6-62.6-18.6c-25.5,0-50.2,7.6-75.5,23.3 C654.8,90.6,654.4,90.7,654,90.7z"></path> <path class="st0" d="M573.8,76.1c-0.6,0-1.1-0.2-1.5-0.7c-0.7-0.8-0.7-2.1,0.2-2.8c0,0,0,0,0,0C610.6,38.8,662.9,0,729.4,0 c57.9,0,111.4,25,146.7,68.5c0.7,0.9,0.5,2.1-0.4,2.8c-0.8,0.6-2,0.5-2.7-0.3C838.4,28.4,786.1,4,729.4,4 c-65.2,0-116.7,38.3-154.2,71.6C574.8,76,574.3,76.1,573.8,76.1z"></path> <path class="st0" d="M513.7,134.4c-1.1,0-2-0.9-2-2c0-0.5,0.2-1.1,0.6-1.4l8.5-8.6c10.2-10.2,20.7-20.8,31.6-31.2 c0.8-0.8,2.1-0.7,2.8,0.1c0.8,0.8,0.7,2.1-0.1,2.8c-10.8,10.4-21.3,20.9-31.5,31.1l-8.5,8.6C514.7,134.2,514.2,134.4,513.7,134.4z"></path> <path class="st0" d="M513.7,162.7c-0.3,0-0.5-0.1-0.8-0.1c-0.8-0.3-1.2-1-1.2-1.9v-14.2c0-0.5,0.2-1,0.6-1.4l7.1-7.1l8.6-8.6 c32.5-32.6,66-66.3,105-90c1-0.6,2.2-0.2,2.7,0.7c0.6,1,0.2,2.2-0.7,2.7l0,0c-38.5,23.4-71.9,57-104.2,89.4l-8.6,8.6l-6.5,6.5v8.5 l10.8-10.8l8.6-8.6C585.6,85.8,642.9,28.3,714,20.9c1.1-0.1,2.1,0.7,2.2,1.8c0.1,1.1-0.7,2.1-1.8,2.2 C644.7,32.1,588,89.1,537.9,139.4l-8.6,8.6l-14.2,14.2C514.7,162.5,514.2,162.7,513.7,162.7z"></path> <path class="st0" d="M555.7,177c-0.6,0-1.1-0.2-1.5-0.6c-0.7-0.8-0.7-2.1,0.1-2.8c0,0,0,0,0,0c7.9-7.3,15.8-15.1,24.1-23.3 c17.1-16.9,34.8-34.2,54.3-49.2c0.9-0.7,2.1-0.5,2.8,0.4c0.7,0.9,0.5,2.1-0.4,2.8c-19.3,14.8-36.9,32.1-53.9,48.8 c-8.4,8.3-16.3,16.1-24.3,23.4C556.6,176.8,556.2,177,555.7,177z"></path> <path class="st0" d="M894.6,184.4h-10c-1.1,0-2-0.9-2-2c0-38.9-15.5-76.2-43.1-103.7c-28.7-28.8-67.8-44.6-110.1-44.6 c-72.5,0-131.9,59.7-184.4,112.3c-2.9,2.9-5.8,5.8-8.6,8.6l-21.3,21.3c-0.8,0.8-2.1,0.8-2.8,0c-0.8-0.8-0.8-2.1,0-2.8l21.3-21.2 l8.6-8.6c53-53.2,113.1-113.5,187.2-113.5c43.4,0,83.5,16.3,113,45.8c27.8,27.7,43.7,65.2,44.2,104.5h6c-0.5-40.9-17-79.9-46-108.7 c-29.4-29.5-69.3-46.4-112.4-47.5c-1.1,0-2-0.9-2-2c0,0,0,0,0,0c0-1.1,0.9-2,2-2c0,0,0,0,0,0c44.2,1.2,85.1,18.5,115.2,48.7 c30.2,30.1,47.2,70.9,47.2,113.6C896.6,183.5,895.7,184.4,894.6,184.4C894.6,184.4,894.6,184.4,894.6,184.4z M867.9,184.4h-10 c-1.1,0-2-0.9-2-2c-0.1-67.8-54-123.3-121.8-125.2c-1.1,0-2-1-1.9-2.1s1-2,2.1-1.9c69.1,2,124.5,58.1,125.6,127.2h6 c-1.1-73.7-61.3-133.3-135.3-133.3c-70.2,0-119.7,48.8-163.5,91.8c-7.8,7.6-15.1,14.8-22.3,21.5l4.1,4.4c7.3-6.8,14.7-14,22.4-21.7 c39.1-38.5,83.3-82,142.5-89.1c1.1-0.1,2.1,0.7,2.2,1.8s-0.7,2.1-1.8,2.2C656.6,64.9,612.8,108,574.2,146 c-8.3,8.2-16.2,15.9-24,23.1c-0.8,0.8-2.1,0.7-2.8-0.1c0,0,0,0,0,0l-6.8-7.4c-0.4-0.4-0.6-0.9-0.5-1.4c0-0.5,0.3-1,0.7-1.4 c7.7-7.1,15.4-14.7,23.6-22.8c44.3-43.6,94.5-92.9,166.3-92.9c76.8,0,139.3,62.5,139.3,139.3C869.9,183.5,869,184.4,867.9,184.4 L867.9,184.4z"></path> <path class="st0" d="M734.2,354.6c-1.1,0-2-0.9-2-2c0-1.1,0.9-2,2-2c43.2-1.1,83.1-18,112.4-47.5c29.5-29.3,46-69.2,46-110.7 c0-1.1,0.9-2,2-2h10c1.1,0,2,0.9,2,2c0,45.3-18,88.7-50.1,120.6c-12.1,12.2-26,22.5-41.2,30.6c-1,0.5-2.2,0.2-2.7-0.8 c-0.5-1-0.2-2.2,0.8-2.7c14.8-7.9,28.4-18,40.2-29.9c30.8-30.7,48.4-72.3,48.9-115.8h-6c-0.5,41.9-17.4,82-47.1,111.6 C819.4,336.1,778.4,353.4,734.2,354.6L734.2,354.6z"></path> <path class="st0" d="M734.2,321.6c-1.1,0-2-0.9-2-2c0-1.1,0.9-2,2-2c67-2,120.6-56.2,121.7-123.2h-6c-0.4,30.5-12.6,59.6-34,81.4 c-0.8,0.8-2,0.8-2.8,0c-0.8-0.8-0.8-2,0-2.8c21.1-21.5,33-50.4,32.9-80.6c0-1.1,0.9-2,2-2h10c1.1,0,2,0.9,2,2 C859.8,262.3,804.2,319.6,734.2,321.6L734.2,321.6z"></path> <path class="st0" d="M729.4,364.7c-25.7,0-50.6-6-76.2-18.4c-1-0.5-1.4-1.7-0.9-2.7s1.7-1.4,2.7-0.9c25.1,12.1,49.4,18,74.5,18 c21.9,0.1,43.7-3.9,64.2-11.6c1-0.4,2.2,0.1,2.6,1.2c0.4,1-0.1,2.2-1.2,2.6l0,0C774.1,360.8,751.8,364.8,729.4,364.7z"></path> <path class="st0" d="M730.6,311.6c-26.2,0-51.6-7.8-77.7-23.9c-0.9-0.6-1.2-1.8-0.7-2.8c0.6-0.9,1.8-1.2,2.8-0.7 c25.4,15.7,50.1,23.3,75.5,23.3c22.2,0,44-6.4,62.6-18.5c0.9-0.6,2.2-0.3,2.8,0.6c0.6,0.9,0.3,2.2-0.6,2.8 C776.2,305,753.6,311.7,730.6,311.6z"></path> <path class="st0" d="M729.4,374.7c-66.5,0-118.8-38.8-156.9-72.6c-0.8-0.7-0.9-2-0.2-2.8c0.7-0.8,2-0.9,2.8-0.2 c37.6,33.4,89,71.6,154.2,71.6c56.7,0,109-24.4,143.6-67c0.7-0.9,2-1,2.8-0.3c0.9,0.7,1,2,0.3,2.8l0,0 C840.8,349.8,787.3,374.7,729.4,374.7z"></path> <path class="st0" d="M634,335.5c-0.4,0-0.7-0.1-1-0.3c-38.9-23.7-72.5-57.4-105-90l-8.6-8.6l-3.7-3.6v8.5l8,8 c10.2,10.2,20.7,20.8,31.5,31.1c0.8,0.8,0.8,2,0.1,2.8c-0.8,0.8-2,0.8-2.8,0.1c-10.9-10.4-21.4-21-31.6-31.2l-8.5-8.6 c-0.4-0.4-0.6-0.9-0.6-1.4v-14.2c0-1.1,0.9-2,2-2c0.5,0,1.1,0.2,1.4,0.6l7.1,7.1l8.6,8.6c32.3,32.4,65.7,66,104.2,89.4 c1,0.6,1.3,1.8,0.7,2.7C635.4,335.2,634.7,335.5,634,335.5L634,335.5z"></path> <path class="st0" d="M714.2,320.7h-0.2c-59.2-7-103.5-50.6-142.5-89c-8.3-8.2-16.1-15.9-23.9-23.1c-0.4-0.4-0.6-0.9-0.7-1.4 c0-0.5,0.2-1.1,0.5-1.4l6.8-7.4c0.7-0.8,2-0.9,2.8-0.1c0,0,0,0,0,0c7.9,7.3,15.8,15.1,24.2,23.4c17,16.8,34.6,34.1,54,48.9 c0.9,0.7,1,1.9,0.4,2.8s-1.9,1-2.8,0.4c-19.5-15-37.2-32.4-54.3-49.2c-7.9-7.8-15.3-15.1-22.7-21.9l-4.1,4.4 c7.3,6.8,14.7,14.1,22.5,21.8c38.6,38,82.4,81.1,140.2,87.9c1.1,0.1,1.9,1,1.9,2.1S715.3,320.8,714.2,320.7L714.2,320.7z"></path> <path class="st0" d="M714.2,353.9H714c-71.1-7.4-128.4-64.9-178.9-115.7c-2.9-2.9-5.8-5.8-8.6-8.6l-14.2-14.2 c-0.4-0.4-0.6-0.9-0.6-1.4v-14.2c0-1.1,0.9-2,2-2c0.5,0,1,0.2,1.4,0.6l21.3,21.2l8.6,8.6c52.5,52.7,111.9,112.4,184.4,112.4 c42.4,0,81.5-15.9,110.1-44.6c27.1-27,42.5-63.4,43-101.6h-12.6c-1.1,75.9-63.2,137.3-139.3,137.3c-71.8,0-122-49.4-166.3-92.9 c-8.2-8.1-16-15.8-23.7-22.8c-0.8-0.7-0.9-2-0.1-2.8c0,0,0,0,0,0c0.7-0.8,2-0.9,2.8-0.1c0,0,0,0,0,0c7.7,7.1,15.5,14.8,23.7,22.9 c43.7,43,93.3,91.8,163.5,91.8c74.6,0,135.3-60.7,135.3-135.3c0-1.1,0.9-2,2-2h16.6c1.1,0,2,0.9,2,2c0,40-15.9,78.3-44.2,106.5 c-29.4,29.5-69.5,45.8-113,45.8c-74.1,0-134.2-60.3-187.2-113.5l-8.6-8.6l-17.8-17.8v8.5l13.6,13.6l8.6,8.6 c50.2,50.3,106.9,107.2,176.5,114.5c1.1,0.1,2,1,1.9,2.1C716.2,353.1,715.3,353.9,714.2,353.9z"></path> <path class="st1" d="M463.6,284.1c-1.1,0-2-0.9-2-2c0-0.6,0.2-1.1,0.6-1.5c10.8-10.4,21.4-20.9,31.5-31.1l8.5-8.6 c0.8-0.8,2.1-0.8,2.8,0c0.8,0.8,0.8,2.1,0,2.8l0,0l-8.5,8.6c-10.2,10.2-20.7,20.8-31.6,31.2C464.6,283.9,464.1,284.1,463.6,284.1z"></path> <path class="st1" d="M203,276.3c-0.5,0-1.1-0.2-1.4-0.6c-21.9-22.2-34.1-52.2-34.1-83.4c0-1.1,0.9-2,2-2s2,0.9,2,2 c0,30.1,11.8,59.1,32.9,80.6c0.8,0.8,0.8,2.1,0,2.8C204,276.1,203.5,276.3,203,276.3L203,276.3z"></path> <path class="st1" d="M383.4,274.1c-1.1,0-2-0.9-2-2c0-0.6,0.3-1.2,0.8-1.6c19.4-14.8,36.9-32.1,53.9-48.8 c8.4-8.3,16.3-16.1,24.3-23.4c0.8-0.8,2.1-0.7,2.8,0.1c0.8,0.8,0.7,2.1-0.1,2.8c-7.9,7.3-15.8,15.1-24.1,23.3 c-17.1,16.9-34.8,34.2-54.3,49.2C384.3,274,383.8,274.1,383.4,274.1z"></path> <path class="st1" d="M122.8,184.4h-10c-1.1,0-2-0.9-2-2c0-45.3,18-88.7,50-120.6c12.1-12.2,26-22.5,41.2-30.6c1-0.5,2.2-0.2,2.7,0.8 c0.5,1,0.2,2.2-0.8,2.7c-14.8,7.9-28.4,18-40.2,29.9c-30.8,30.7-48.4,72.3-48.9,115.8h6c0.5-41.9,17.5-82,47.2-111.6 c30.1-30.2,71-47.5,115.2-48.7c1.1,0,2,0.8,2.1,1.9c0,1.1-0.8,2-1.9,2.1c-43.2,1.1-83.1,18-112.4,47.5c-29.5,29.3-46,69.2-46,110.7 C124.8,183.5,123.9,184.4,122.8,184.4C122.8,184.4,122.8,184.4,122.8,184.4z"></path> <path class="st1" d="M169.5,184.4h-10c-1.1,0-2-0.9-2-2c0.1-69.9,55.7-127.2,125.6-129.2c1.1,0,2,0.8,2.1,1.9s-0.8,2-1.9,2.1 c-67,2-120.6,56.2-121.7,123.2h6c0.5-30.5,12.6-59.6,34-81.3c0.8-0.8,2-0.8,2.8,0c0.8,0.8,0.8,2,0,2.8c-21.1,21.5-33,50.4-32.9,80.6 C171.5,183.4,170.6,184.3,169.5,184.4z"></path> <path class="st1" d="M363.4,32.3c-0.3,0-0.6-0.1-0.9-0.2C337.4,19.9,313,14,288,14c-21.9-0.1-43.7,3.9-64.2,11.6 c-1,0.4-2.2-0.1-2.6-1.2s0.1-2.2,1.2-2.6l0,0c21-7.9,43.2-11.9,65.7-11.9c25.7,0,50.6,6,76.2,18.4c1,0.5,1.4,1.7,1,2.7 C364.9,31.8,364.2,32.2,363.4,32.3L363.4,32.3z"></path> <path class="st1" d="M363.4,90.7c-0.4,0-0.7-0.1-1.1-0.3c-25.4-15.7-50.1-23.3-75.5-23.3c-22.2,0-44,6.4-62.6,18.6 c-0.9,0.6-2.2,0.3-2.8-0.6c-0.6-0.9-0.3-2.2,0.6-2.8c19.3-12.6,41.8-19.2,64.8-19.2c26.2,0,51.6,7.8,77.6,23.9 c0.9,0.6,1.2,1.8,0.7,2.7C364.7,90.4,364.1,90.7,363.4,90.7z"></path> <path class="st1" d="M179.5,184.4c-1.1,0-2-0.9-2-2l0,0c0.1-60.3,48.9-109.2,109.2-109.2c59.5,0,105,44.8,145.1,84.2 c4.3,4.2,8.7,8.6,13,12.8c0.8,0.8,0.8,2,0,2.8c-0.8,0.8-2,0.8-2.8,0c-4.3-4.2-8.8-8.6-13.1-12.8c-39.6-38.9-84.4-83.1-142.3-83.1 c-58.1,0.1-105.2,47.1-105.2,105.2C181.5,183.5,180.6,184.4,179.5,184.4C179.5,184.4,179.5,184.4,179.5,184.4z"></path> <path class="st1" d="M443.5,76.1c-0.5,0-1-0.2-1.3-0.5C404.6,42.3,353.2,4,288,4c-56.7,0-109,24.4-143.6,67c-0.7,0.9-2,1-2.8,0.3 s-1-2-0.3-2.8C176.6,25,230.1,0,288,0c66.5,0,118.8,38.8,156.9,72.6c0.8,0.7,0.9,2,0.2,2.8C444.7,75.9,444.1,76.1,443.5,76.1 L443.5,76.1z"></path> <path class="st1" d="M503.7,148.6c-0.5,0-1-0.2-1.4-0.6l-7.1-7.1l-8.6-8.6c-32.3-32.4-65.7-66-104.2-89.4c-0.9-0.6-1.2-1.8-0.7-2.7 c0,0,0,0,0,0c0.6-0.9,1.8-1.2,2.7-0.7c0,0,0,0,0,0c38.9,23.7,72.5,57.4,105,90l8.6,8.6l3.7,3.7v-8.5l-7.9-8 c-10.2-10.3-20.7-20.8-31.5-31.1c-0.8-0.8-0.8-2,0-2.8s2-0.8,2.8,0l0,0c10.9,10.4,21.4,21,31.6,31.2l8.5,8.6 c0.4,0.4,0.6,0.9,0.6,1.4v14.2c0,0.8-0.5,1.6-1.2,1.9C504.2,148.5,503.9,148.6,503.7,148.6z"></path> <path class="st1" d="M461.7,177c-0.5,0-1-0.2-1.4-0.5c-8-7.3-15.9-15.1-24.2-23.4c-17-16.8-34.6-34.1-54-48.9 c-0.9-0.7-1-1.9-0.4-2.8c0.7-0.9,1.9-1,2.8-0.4c19.6,15,37.2,32.4,54.3,49.2c7.9,7.8,15.3,15.1,22.7,22l4.1-4.4 c-7.3-6.8-14.7-14.1-22.5-21.8c-38.6-38-82.3-81.1-140.2-88c-1.1-0.1-1.9-1.1-1.8-2.2c0.1-1.1,1.1-1.9,2.2-1.8 c59.2,7,103.5,50.6,142.5,89c8.3,8.2,16.1,15.9,23.9,23.1c0.4,0.4,0.6,0.9,0.6,1.4c0,0.6-0.2,1.1-0.6,1.6l-6.8,7.4 C462.8,176.8,462.3,177,461.7,177z"></path> <path class="st1" d="M503.7,162.7c-0.5,0-1-0.2-1.4-0.6L488.1,148c-2.8-2.8-5.7-5.7-8.6-8.6C429.4,89.1,372.7,32.1,303,24.9 c-1.1-0.1-1.9-1.1-1.8-2.2c0.1-1.1,1.1-1.9,2.2-1.8c71.1,7.4,128.4,64.9,178.9,115.7l8.6,8.6l14.2,14.2c0.8,0.8,0.8,2,0,2.8 C504.7,162.5,504.2,162.7,503.7,162.7L503.7,162.7z"></path> <path class="st1" d="M203,343.8c-0.3,0-0.7-0.1-1-0.2c-15.2-8.1-29-18.4-41.2-30.6c-32.1-31.9-50.1-75.4-50.1-120.6c0-1.1,0.9-2,2-2 s2,0.9,2,2c0,44.2,17.6,86.6,48.9,117.8c11.9,11.9,25.4,22,40.2,29.9c1,0.5,1.4,1.7,0.8,2.7C204.4,343.4,203.7,343.8,203,343.8 L203,343.8z"></path> <path class="st1" d="M288,364.7c-22.4,0.1-44.7-3.9-65.7-11.9c-1-0.4-1.5-1.6-1.2-2.6s1.6-1.5,2.6-1.2c20.5,7.7,42.3,11.7,64.2,11.6 c25.1,0,49.4-5.9,74.5-18c1-0.5,2.2-0.1,2.7,0.9s0.1,2.2-0.9,2.7C338.6,358.7,313.7,364.7,288,364.7z"></path> <path class="st1" d="M286.8,311.6c-23,0-45.5-6.6-64.8-19.2c-0.9-0.6-1.2-1.8-0.6-2.8s1.8-1.2,2.8-0.6 c18.6,12.1,40.4,18.6,62.6,18.5c25.5,0,50.1-7.6,75.5-23.3c0.9-0.6,2.2-0.3,2.8,0.7c0.6,0.9,0.3,2.2-0.6,2.8 C338.4,303.8,313,311.6,286.8,311.6z"></path> <path class="st1" d="M286.8,301.6c-60.3-0.1-109.2-48.9-109.2-109.2c0-1.1,0.9-2,2-2s2,0.9,2,2l0,0c0.1,58.1,47.1,105.2,105.2,105.2 c57.9,0,102.7-44.1,142.3-83.1c4.3-4.2,8.8-8.6,13.1-12.8c0.8-0.8,2.1-0.8,2.8,0c0.8,0.8,0.8,2.1,0,2.8c-4.3,4.2-8.8,8.5-13,12.8 C391.8,256.9,346.3,301.6,286.8,301.6z"></path> <path class="st1" d="M288,374.7c-57.9,0-111.4-25-146.7-68.5c-0.7-0.9-0.6-2.1,0.3-2.8c0.9-0.7,2.1-0.6,2.8,0.3 c34.6,42.6,86.9,67,143.6,67c65.2,0,116.7-38.3,154.2-71.6c0.8-0.7,2.1-0.7,2.8,0.2c0.7,0.8,0.7,2.1-0.2,2.8l0,0 C406.8,335.9,354.5,374.7,288,374.7z"></path> <path class="st1" d="M303.2,353.9c-1.1,0.1-2-0.8-2.1-1.9c-0.1-1.1,0.8-2,1.9-2.1c69.7-7.3,126.4-64.2,176.5-114.5l8.6-8.6 l14.2-14.2c0.8-0.8,2-0.8,2.8,0c0.4,0.4,0.6,0.9,0.6,1.5v14.2c0,0.5-0.2,1-0.6,1.4l-7.1,7.1l-8.6,8.6c-32.5,32.6-66.1,66.3-105,90 c-0.9,0.6-2.2,0.3-2.8-0.7c-0.6-0.9-0.3-2.2,0.7-2.8c38.5-23.4,71.9-56.9,104.2-89.4c2.9-2.9,5.7-5.8,8.6-8.6l6.5-6.5v-8.5 l-10.8,10.8l-8.6,8.6C431.8,289,374.5,346.5,303.4,353.9L303.2,353.9z"></path> <path class="st1" d="M286.8,331.7c-76.8,0-139.3-62.5-139.3-139.3c0-1.1,0.9-2,2-2h10c1.1,0,2,0.9,2,2 c0.1,67.8,54,123.2,121.8,125.2c1.1,0,2,1,1.9,2.1s-1,2-2.1,1.9c-69.1-2-124.5-58.1-125.6-127.2h-6c1.1,73.7,61.4,133.3,135.3,133.3 c70.2,0,119.7-48.8,163.5-91.8c7.7-7.6,15.1-14.8,22.3-21.6l-4.1-4.4c-7.3,6.8-14.7,14-22.4,21.7c-39.1,38.5-83.3,82-142.5,89 c-1.1,0.1-2.1-0.7-2.2-1.8c-0.1-1.1,0.7-2.1,1.8-2.2c57.9-6.9,101.6-49.9,140.2-87.9c8.3-8.2,16.2-15.9,24-23.1 c0.8-0.7,2.1-0.7,2.8,0.1c0,0,0,0,0,0l6.8,7.4c0.4,0.4,0.6,0.9,0.5,1.4c0,0.5-0.3,1-0.6,1.4c-7.7,7.1-15.4,14.7-23.6,22.8 C408.8,282.3,358.6,331.7,286.8,331.7z"></path> <path class="st1" d="M283.2,354.6L283.2,354.6c-44.2-1.2-85.1-18.5-115.2-48.7c-30.2-30.1-47.2-70.9-47.1-113.6c0-1.1,0.9-2,2-2h10 c1.1,0,2,0.9,2,2c0,38.9,15.5,76.2,43.1,103.6c28.6,28.8,67.8,44.6,110.1,44.6c72.5,0,131.9-59.7,184.4-112.4l8.6-8.6l20.7-20.6 v-23.3L481,155.1l-8.6-8.6C419.9,93.8,360.5,34.1,288,34.1c-42.4,0-81.4,15.8-110.1,44.6c-27.1,27-42.5,63.4-43,101.7h12.6 c1.1-75.9,63.1-137.3,139.3-137.3c71.8,0,122,49.4,166.3,92.9c8.2,8.1,16,15.8,23.7,22.8c0.8,0.8,0.9,2,0.1,2.9 c-0.8,0.8-2,0.9-2.9,0.1l0,0c-7.7-7.1-15.5-14.8-23.7-22.9c-43.7-43-93.3-91.8-163.5-91.8c-74.6,0-135.3,60.7-135.3,135.3 c0,1.1-0.9,2-2,2h-16.7c-1.1,0-2-0.9-2-2c0-40,15.9-78.3,44.2-106.5c29.4-29.5,69.5-45.8,112.9-45.8c74.1,0,134.2,60.3,187.2,113.5 l8.6,8.6l21.3,21.2c0.4,0.4,0.6,0.9,0.6,1.4v24.9c0,0.5-0.2,1-0.6,1.4l-21.3,21.3l-8.6,8.6c-53,53.2-113.1,113.5-187.2,113.5 c-43.4,0-83.5-16.3-112.9-45.8c-27.8-27.7-43.7-65.2-44.2-104.5h-6c0.5,40.9,17,79.9,46,108.7c29.4,29.5,69.3,46.4,112.4,47.5 c1.1,0,2,0.9,2,2S284.3,354.6,283.2,354.6L283.2,354.6z"></path> <linearGradient id="SVGID_1_" gradientUnits="userSpaceOnUse" x1="387.8601" y1="182.3755" x2="579.2501" y2="187.6455" gradientTransform="matrix(1 0 0 -1 0 378)"> <stop offset="0" style="stop-color:#2E5F69"></stop> <stop offset="1" style="stop-color:#402C50"></stop> </linearGradient> <circle class="st2" cx="505.7" cy="192.4" r="87"></circle> <path class="st1" d="M811.9,154.7h129.2c8.4,0,15.3,6.8,15.3,15.3v39.9c0,8.4-6.8,15.3-15.3,15.3H811.9c-8.4,0-15.3-6.8-15.3-15.3 V170C796.7,161.5,803.5,154.7,811.9,154.7z"></path> <path class="st0" d="M82.9,154.7h129.2c8.4,0,15.3,6.8,15.3,15.3v39.9c0,8.4-6.8,15.3-15.3,15.3H82.9c-8.4,0-15.3-6.8-15.3-15.3V170 C67.6,161.5,74.4,154.7,82.9,154.7z"></path> <text transform="matrix(1 0 0 1 477.1001 159.6802)" class="st3 st4 st5">D</text> <text transform="matrix(1 0 0 1 492.79 159.6802)" class="st3 st4 st5 st6">A</text> <text transform="matrix(1 0 0 1 507.46 159.6802)" class="st3 st4 st5 st7">T</text> <text transform="matrix(1 0 0 1 517.3201 159.6802)" class="st3 st4 st5">A</text> <text transform="matrix(1 0 0 1 457.47 187.1299)" class="st3 st4 st5 st6">A</text> <text transform="matrix(1 0 0 1 472.1401 187.1299)" class="st3 st4 st5">T CORE</text> <text transform="matrix(1 0 0 1 444.29 214.5801)" class="st3 st4 st5">CUS</text> <text transform="matrix(1 0 0 1 489.4399 214.5801)" class="st3 st4 st5 st6">T</text> <text transform="matrix(1 0 0 1 500.4399 214.5801)" class="st3 st4 st5">OMER</text> <text transform="matrix(1 0 0 1 451.77 242.0298)" class="st3 st4 st5 st6">A</text> <text transform="matrix(1 0 0 1 466.4299 242.0298)" class="st3 st4 st5">T HEART</text> <circle class="st0" cx="292.9" cy="55.3" r="7.8"></circle> <circle class="st0" cx="212.8" cy="91.4" r="7.8"></circle> <circle class="st0" cx="211.8" cy="282.4" r="7.8"></circle> <circle class="st0" cx="293.2" cy="319.4" r="7.8"></circle> <circle class="st0" cx="373.6" cy="279.4" r="7.8"></circle> <circle class="st0" cx="212.4" cy="346.6" r="7.8"></circle> <circle class="st0" cx="293.2" cy="352.6" r="7.8"></circle> <circle class="st0" cx="373.6" cy="339.4" r="7.8"></circle> <circle class="st0" cx="454.7" cy="291.8" r="7.8"></circle> <circle class="st0" cx="213.3" cy="28.2" r="7.8"></circle> <circle class="st0" cx="293.2" cy="22.3" r="7.8"></circle> <circle class="st0" cx="373.1" cy="35.2" r="7.8"></circle> <circle class="st1" cx="563.2" cy="82.9" r="7.8"></circle> <circle class="st1" cx="644.1" cy="34.5" r="6.5"></circle> <circle class="st1" cx="724.2" cy="22.6" r="6.5"></circle> <circle class="st1" cx="724.2" cy="55.3" r="6.5"></circle> <circle class="st1" cx="644.1" cy="95.7" r="6.5"></circle> <circle class="st1" cx="644.1" cy="279.4" r="6.5"></circle> <circle class="st1" cx="724.2" cy="319.2" r="6.5"></circle> <circle class="st1" cx="804.8" cy="282.9" r="6.5"></circle> <circle class="st1" cx="724.2" cy="353.6" r="6.5"></circle> <circle class="st1" cx="803.8" cy="346.2" r="6.5"></circle> <circle class="st1" cx="643.5" cy="339.7" r="6.5"></circle> <circle class="st1" cx="561.8" cy="290.6" r="6.5"></circle> <circle class="st1" cx="804.4" cy="27.8" r="6.5"></circle> <circle class="st1" cx="804.4" cy="90.7" r="6.5"></circle> <circle class="st0" cx="453" cy="82.6" r="7.8"></circle> <circle class="st0" cx="373.1" cy="95.7" r="7.8"></circle> <text transform="matrix(1 0 0 1 830.25 185.6899)" class="st3 st4 st8">MARKETING</text> <text transform="matrix(1 0 0 1 833.1401 206.9199)" class="st3 st4 st8">STR</text> <text transform="matrix(1 0 0 1 864.1299 206.9199)" class="st3 st4 st8 st6">A</text> <text transform="matrix(1 0 0 1 875.47 206.9199)" class="st3 st4 st8">TE</text> <text transform="matrix(1 0 0 1 895.23 206.9199)" class="st3 st4 st8">G</text> <text transform="matrix(1 0 0 1 908.8901 206.9199)" class="st3 st4 st8">Y</text> <text transform="matrix(1 0 0 1 102.46 185.4902)" class="st3 st4 st8">BUSINESS</text> <text transform="matrix(1 0 0 1 85.78 206.7202)" class="st3 st4 st8">INTELLIGENCE</text> <path class="st0" d="M353.3,306.6l-14.9,21.3l26.3,2.5L361,323c0,0,38.9-19.6,72.5-54.6l-7.8-7.4c0,0-31,32.1-69.1,51.7L353.3,306.6 z"></path> <path class="st1" d="M650.1,76.2l14-21.9l-26.4-1.5l4,7.3c0,0-38,21.2-70.2,57.6l8.1,7.1c0,0,29.7-33.3,67-54.5L650.1,76.2z"></path> <g> <defs> <rect id="SVGID_00000017494348501799621350000008496278561669365934_" x="1072" y="-107.3" width="900" height="835.3"></rect> </defs> <clipPath id="SVGID_00000127758518659268599080000012930419966132724145_"> <use xlink:href="#SVGID_00000017494348501799621350000008496278561669365934_" style="overflow:visible;"></use> </clipPath> </g> <rect x="227.5" y="304.8" class="st9" width="266.9" height="13.6"></rect> <text transform="matrix(1 0 0 1 227.5176 313.3691)" class="st10 st11"> </text> </svg> 