<?xml version="1.0" encoding="UTF-8"?> <svg xmlns="http://www.w3.org/2000/svg" viewBox="0 0 18.54 32.68"><defs><style>.cls-1{fill:#34a853;fill-rule:evenodd;}</style></defs><g id="Layer_2" data-name="Layer 2"><g id="Layer_1-2" data-name="Layer 1"><path class="cls-1" d="M10,14.32c-4.11-1.06-5.5-2.16-5.5-3.91,0-2,1.84-3.36,5-3.36S13.88,8.6,14,10.86h4a7.17,7.17,0,0,0-5.85-6.92V0H6.67V3.94C3.11,4.66.26,7,.26,10.51c0,4.2,3.49,6.3,8.61,7.47,4.56,1.09,5.47,2.65,5.47,4.39,0,1.26-.91,3.27-4.92,3.27C5.66,25.64,4.21,24,4,21.82H0c.19,4,3.2,6.21,6.67,6.92v3.94h5.47V28.74c3.55-.61,6.4-2.72,6.4-6.47-.09-5-4.46-6.85-8.57-7.95"></path></g></g></svg> 