<?xml version="1.0" encoding="UTF-8"?> <svg xmlns="http://www.w3.org/2000/svg" viewBox="0 0 26.44 29.49"><defs><style>.cls-1{fill:#ea4335;fill-rule:evenodd;}</style></defs><g id="Layer_2" data-name="Layer 2"><g id="Layer_1-2" data-name="Layer 1"><path class="cls-1" d="M21.91,26.53H4.3V24.46c0-2.93,5.88-4.54,8.81-4.54s8.8,1.61,8.8,4.54ZM13.11,8.84a4.47,4.47,0,1,1-4.45,4.47A4.51,4.51,0,0,1,13.11,8.84Zm0-5.9a1.53,1.53,0,0,1,1.52,1.52A1.52,1.52,0,0,1,13.11,6a1.46,1.46,0,0,1-1.52-1.5A1.59,1.59,0,0,1,13.11,2.94Zm10.32,0h-6.1A4.49,4.49,0,0,0,13.19,0,4.49,4.49,0,0,0,9.06,2.94H3A3,3,0,0,0,0,5.88V26.53a3,3,0,0,0,3,3H23.52a3,3,0,0,0,2.92-3V5.88A3.05,3.05,0,0,0,23.43,2.94Z"></path></g></g></svg> 