<?xml version="1.0" encoding="UTF-8"?> <svg xmlns="http://www.w3.org/2000/svg" viewBox="0 0 25.08 25.08"><defs><style>.cls-1{fill:#fbbc04;fill-rule:evenodd;}</style></defs><g id="Layer_2" data-name="Layer 2"><g id="Layer_1-2" data-name="Layer 1"><path class="cls-1" d="M20.33,22.31,15,16.94a6.74,6.74,0,0,1-3.82,1.15,7,7,0,1,1,0-14,6.92,6.92,0,0,1,7,7A7.48,7.48,0,0,1,17,14.92l5.34,5.33ZM22.28,0H2.78A2.83,2.83,0,0,0,0,2.8V22.31a2.82,2.82,0,0,0,2.78,2.77h19.5a2.83,2.83,0,0,0,2.8-2.77V2.8A2.8,2.8,0,0,0,22.28,0ZM11.15,6.94a4.22,4.22,0,1,0,4.22,4.21A4.23,4.23,0,0,0,11.15,6.94Z"></path></g></g></svg> 