<?xml version="1.0" encoding="UTF-8"?> <svg xmlns="http://www.w3.org/2000/svg" viewBox="0 0 43.46 43.46"><defs><style>.cls-1,.cls-2{fill-rule:evenodd;}.cls-1{opacity:0;}.cls-2{fill:#4285f4;}</style></defs><g id="Layer_2" data-name="Layer 2"><g id="Layer_1-2" data-name="Layer 1"><path class="cls-1" d="M0,21.73H0A21.73,21.73,0,1,1,21.73,43.46,21.73,21.73,0,0,1,0,21.73Z"></path><path class="cls-2" d="M17.32,20.43c-3.57,0-10.84,1.76-10.84,5.2v3.7H17.32V25.94c0-1.27.5-3.43,3.66-5.11A20.2,20.2,0,0,0,17.32,20.43ZM28.9,21.85c-2.8,0-8.48,1.37-8.48,4.09v3.39h17V25.94C37.41,23.3,31.74,21.85,28.9,21.85Zm-11.58-4.4A4.48,4.48,0,0,0,21.9,13a4.55,4.55,0,0,0-4.58-4.49A4.65,4.65,0,0,0,12.65,13,4.63,4.63,0,0,0,17.32,17.45ZM28.9,18.9a3.74,3.74,0,0,0,3.84-3.69,3.82,3.82,0,0,0-3.84-3.7,3.76,3.76,0,0,0-3.81,3.7A3.79,3.79,0,0,0,28.9,18.9Z"></path></g></g></svg> 