<svg xmlns="http://www.w3.org/2000/svg" viewBox="0 0 340.1 204.2"><defs><style>.cls-1{fill:#fff;}</style></defs><g id="Layer_2" data-name="Layer 2"><g id="Layer_1-2" data-name="Layer 1"><path class="cls-1" d="M142.8,93.71V74.49l45.78-5.76c8.49-1.08,12.14-5.07,12.23-13.49.07-5.52.06-11,0-16.56-.08-8.54-3.67-12.58-12.06-13.64L143,19.31V0c17.28,3.9,34.58,7.24,51.54,11.84,10.59,2.88,17.39,13.61,17.67,24.92q.25,10,0,20C212,68.6,204.75,79.31,193.64,82.2,177,86.55,160,89.87,142.8,93.71Zm30-65.75V44.09h16.39V30.38Zm-30-2.94V44.09h28.06V27.88ZM172.55,49.7V65.56l16.94-2.85v-13Zm-29.61,0V69l28-3.47V49.7ZM127.75,24.49l12.48-4.93V0L127.75,6.62Zm0,4.16v16h12.48V24.49Zm0,37.43,12.48,4.47V49.29H127.75Zm0,21,12.48,7.71V74.87l-12.48-4.93Z"/><path class="cls-1" d="M0,176.15V128.46H41.77v9H10v29.7H42.24v9Zm5.45-20v-8.72h33v8.72Z"/><path class="cls-1" d="M53.41,176.15V128.46h9.34l21.73,26.91H79.23L101,128.46h9.33v47.69h-10v-17c0-3.76.09-7.31.27-10.62a98.18,98.18,0,0,1,1.09-10.15l1,3.47L84.14,163.89h-4.5L60.91,141.67l1.16-3.33a101,101,0,0,1,1.09,10.15c.18,3.31.27,6.86.27,10.62v17Z"/><path class="cls-1" d="M123.24,176.15V128.46H165v9H133.26v29.7h32.22v9Zm5.45-20v-8.72h33.05v8.72Z"/><path class="cls-1" d="M176.66,176.15V128.46h27.73a20.54,20.54,0,0,1,9.09,1.87,14,14,0,0,1,6,5.28,14.68,14.68,0,0,1,2.12,7.9,14.46,14.46,0,0,1-2.35,8.08,17,17,0,0,1-6.34,5.69,18.79,18.79,0,0,1-8.89,2.11H186.54v16.76Zm9.88-25.07h16.28a9.26,9.26,0,0,0,4.12-.92,7.73,7.73,0,0,0,3-2.56,6.34,6.34,0,0,0,1.12-3.68,5.63,5.63,0,0,0-1.12-3.47,7.33,7.33,0,0,0-3-2.32,10.54,10.54,0,0,0-4.16-.82H186.54Zm25.75,25.07-16.22-21.53,10.77-1.7,17.58,23.3Z"/><path class="cls-1" d="M259.5,176.83a38.53,38.53,0,0,1-11.2-1.57,27.06,27.06,0,0,1-9.1-4.63,21.54,21.54,0,0,1-6.1-7.66,24.76,24.76,0,0,1-2.21-10.8,21.36,21.36,0,0,1,2.24-9.71,23.57,23.57,0,0,1,6.34-7.77,30.4,30.4,0,0,1,9.61-5.14,37.62,37.62,0,0,1,12-1.84,38.38,38.38,0,0,1,17.68,4.09,21.89,21.89,0,0,1,5.48,3.81l-6.33,7.09a31,31,0,0,0-4.77-2.93,27.68,27.68,0,0,0-5.66-2.08,26.13,26.13,0,0,0-6.47-.78,24.1,24.1,0,0,0-7.59,1.15,20.85,20.85,0,0,0-6.17,3.2,14.82,14.82,0,0,0-4.12,4.84,12.87,12.87,0,0,0-1.47,6.07,15.12,15.12,0,0,0,1.57,7.12,12.8,12.8,0,0,0,4.26,4.76,19.18,19.18,0,0,0,6.06,2.66,28.88,28.88,0,0,0,7.12.85,34,34,0,0,0,7-.68,21,21,0,0,0,5.68-2,11,11,0,0,0,3.75-3.1,5.81,5.81,0,0,0,1.2-3.92l-.07-1.16,1.43,2.45H260.25V150.8h28.21c0,.69.09,1.35.14,2s.07,1.23.1,1.71,0,.8,0,1a19.72,19.72,0,0,1-2.11,9.37,18.5,18.5,0,0,1-6,6.64,27.68,27.68,0,0,1-9.23,4A49.48,49.48,0,0,1,259.5,176.83Z"/><path class="cls-1" d="M297.86,176.15V128.46h41.76v9H307.87v29.7H340.1v9Zm5.45-20v-8.72h33v8.72Z"/><path class="cls-1" d="M109.82,188.09h6.94c5.15,0,8.67,3.18,8.67,7.94s-3.52,7.94-8.67,7.94h-6.94Zm6.8,13.39c3.54,0,5.83-2.16,5.83-5.45s-2.29-5.44-5.83-5.44h-3.85v10.89Z"/><path class="cls-1" d="M133.33,188.09h2.95V204h-2.95Z"/><path class="cls-1" d="M156.18,195.85H159v6.33a10.06,10.06,0,0,1-6.22,2c-4.92,0-8.55-3.43-8.55-8.17s3.63-8.16,8.6-8.16a8.19,8.19,0,0,1,6.37,2.58l-1.86,1.82a5.86,5.86,0,0,0-4.37-1.82,5.58,5.58,0,1,0,0,11.16,6.4,6.4,0,0,0,3.27-.81Z"/><path class="cls-1" d="M167.62,188.09h2.95V204h-2.95Z"/><path class="cls-1" d="M182.85,190.59h-5.26v-2.5h13.47v2.5H185.8V204h-3Z"/><path class="cls-1" d="M207.57,200.3h-7.95L198.06,204h-3l7.15-15.88h2.9L212.24,204h-3.09Zm-1-2.32-3-6.94-3,6.94Z"/><path class="cls-1" d="M219,188.09H222v13.39h8.3V204H219Z"/></g></g></svg>