<svg xmlns="http://www.w3.org/2000/svg" xmlns:xlink="http://www.w3.org/1999/xlink" viewBox="0 0 556.86 502.33"><defs><style>.cls-1{fill:url(#linear-gradient);}.cls-2{fill:#fff;}</style><linearGradient id="linear-gradient" x1="424.88" y1="-88.26" x2="130.94" y2="593.03" gradientUnits="userSpaceOnUse"><stop offset="0" stop-color="#336767"/><stop offset="0.07" stop-color="#346165"/><stop offset="0.44" stop-color="#3a4459"/><stop offset="0.76" stop-color="#3e3252"/><stop offset="0.99" stop-color="#3f2c50"/></linearGradient></defs><g id="Layer_2" data-name="Layer 2"><g id="Layer_1-2" data-name="Layer 1"><rect class="cls-1" width="556.86" height="502.33"/><path class="cls-2" d="M203.6,385.73V327.36c46.58-5.85,92.81-11.64,139-17.49,25.79-3.26,36.86-15.39,37.15-41,.19-16.77.15-33.53,0-50.3-.26-25.92-11.14-38.2-36.62-41.41-45.84-5.79-91.7-11.5-138.93-17.42v-58.5c52.5,11.85,105,22,156.53,35.95,32.18,8.74,52.81,41.34,53.67,75.66q.78,30.33,0,60.7c-.85,35.89-22.73,68.41-56.46,77.2C307.34,364,255.86,374.07,203.6,385.73Zm91.19-199.67v49h49.77V193.41Zm-91-8.93v57.93H289V185.81ZM294,252.07v48.18l51.43-8.65V252.07Zm-89.93,0V310.8l85.07-10.55V252.07Zm-46.14-76.54,37.9-15V101.15l-37.9,20.11Zm0,12.63v48.65h37.9V175.53Zm0,113.68,37.9,13.57V250.85h-37.9Zm0,63.62,37.9,23.39V328.51l-37.9-15Z"/></g></g></svg>